<?xml version="1.0" standalone="no"?>
<!DOCTYPE svg PUBLIC "-//W3C//DTD SVG 20010904//EN"
 "http://www.w3.org/TR/2001/REC-SVG-20010904/DTD/svg10.dtd">
<svg version="1.0" xmlns="http://www.w3.org/2000/svg"
 width="607.000000pt" height="607.000000pt" viewBox="0 0 607.000000 607.000000"
 preserveAspectRatio="xMidYMid meet">
<metadata>
Created by potrace 1.14, written by Peter Selinger 2001-2017
</metadata>
<g transform="translate(0.000000,607.000000) scale(0.100000,-0.100000)"
fill="#000000" stroke="none">
<path d="M1160 6053 c-52 -22 -100 -62 -100 -81 0 -15 107 -187 168 -270 9
-13 27 -42 40 -63 12 -22 46 -75 75 -118 28 -43 57 -85 62 -93 6 -8 27 -41 48
-72 20 -31 37 -60 37 -64 0 -4 -22 -22 -48 -40 -70 -48 -215 -163 -317 -252
-176 -152 -340 -342 -478 -553 -99 -151 -115 -178 -201 -352 -118 -237 -209
-534 -250 -816 -22 -150 -22 -678 0 -828 77 -527 300 -1025 642 -1434 82 -97
315 -317 437 -412 785 -611 1776 -764 2765 -428 138 47 390 172 543 269 246
158 568 455 739 685 291 388 483 847 552 1320 22 150 22 678 0 828 -44 303
-131 579 -269 856 -119 240 -209 376 -408 619 -18 22 -17 24 28 112 62 121 85
219 85 359 0 187 -55 348 -163 478 -162 195 -356 287 -602 287 -203 0 -367
-62 -516 -195 -42 -38 -122 -132 -138 -163 -9 -16 -18 -21 -29 -17 -61 24
-334 79 -477 95 -569 66 -1128 -27 -1616 -271 l-115 -57 -56 76 c-30 42 -58
87 -62 100 -4 12 -12 22 -17 22 -5 0 -17 15 -26 34 -35 67 -109 187 -197 318
-27 40 -59 88 -70 105 -12 18 -23 33 -26 32 -3 0 -21 -7 -40 -16z"/>
</g>
</svg>
